# xmcd
#
# Track frame offsets: 
#        150
#        25228
#        43413
#        65563
#        92390
#        116938
#        137448
#        155800
#        175265
#        200198
#        229595
#
# Disc length: 3349 seconds
#
# Revision: 2
# Processed by: cddbd v1.5.2PL0 Copyright (c) Steve Scherf et al.
# Submitted via: ExactAudioCopy v0.99pb4
#
DISCID=9d0d130b
DTITLE=Deep Purple - Rapture Of The Deep (VICP-65247)
DYEAR=2005
DGENRE=Hard Rock
TTITLE0=Money Talks
TTITLE1=Girls Like That
TTITLE2=Wrong Man
TTITLE3=Rapture Of The Deep
TTITLE4=Clearly Quite Absurd
TTITLE5=Don't Let Go
TTITLE6=Back To Back
TTITLE7=Kiss Tomorrow Goodbye
TTITLE8=Junkyard Blues
TTITLE9=Before Time Again
TTITLE10=Things I Never Said [Bonus Track For Japan]
EXTD=YEAR: 2005
EXTT0=
EXTT1=
EXTT2=
EXTT3=
EXTT4=
EXTT5=
EXTT6=
EXTT7=
EXTT8=
EXTT9=
EXTT10=
PLAYORDER=
